<?xml version="1.0" encoding="utf-8"?>
<!-- Generator: Adobe Illustrator 27.5.0, SVG Export Plug-In . SVG Version: 6.00 Build 0)  -->
<svg version="1.1" id="Layer_1" xmlns="http://www.w3.org/2000/svg" xmlns:xlink="http://www.w3.org/1999/xlink" x="0px" y="0px"
	 viewBox="0 0 4000 4000" style="enable-background:new 0 0 4000 4000;" xml:space="preserve">
<g>
	<rect style="fill-rule:evenodd;clip-rule:evenodd;fill:#FFFFFF;" width="4000" height="4000"/>
	<path style="fill-rule:evenodd;clip-rule:evenodd;" d="M1608.128,490.37h-292.513c0,853.104,0,1706.206,0,2559.311
		c82.313,36.133,173.292,56.188,268.952,56.188c7.885,0,15.742-0.138,23.562-0.406V1566.623l105.727-105.726l396.775,396.778
		c18.27,16.627,35.75,34.102,52.37,52.37c126.392,138.893,203.438,323.481,203.438,526.063
		c0,423.936-337.395,769.068-758.31,781.526c-7.825,0.231-15.677,0.345-23.562,0.345c-94.502,0-185.093-16.767-268.952-47.485
		v305.168c85.952,22.172,176.075,33.968,268.952,33.968c7.877,0,15.728-0.085,23.562-0.255
		c582.008-12.533,1049.956-488.248,1049.956-1073.268c0-10.512-0.152-20.99-0.448-31.432
		c-8.127-282.642-125.505-537.911-311.382-725.055c-1.728-1.738-3.458-3.472-5.197-5.202l-420.363-420.363L2684.38,490.37h-413.68
		l-662.573,662.575V490.37z"/>
</g>
</svg>
